<mxfile host="65bd71144e">
    <diagram id="_5RQ4FLb8RW8uyefNNAr" name="Clases">
        <mxGraphModel dx="1045" dy="1655" grid="1" gridSize="10" guides="1" tooltips="1" connect="1" arrows="1" fold="1" page="1" pageScale="1" pageWidth="850" pageHeight="1100" math="0" shadow="0">
            <root>
                <mxCell id="0"/>
                <mxCell id="1" parent="0"/>
                <mxCell id="2" value="&lt;font style=&quot;vertical-align: inherit;&quot;&gt;&lt;font style=&quot;vertical-align: inherit;&quot;&gt;Gestion_Expediente&lt;/font&gt;&lt;/font&gt;" style="swimlane;fontStyle=1;align=center;verticalAlign=top;childLayout=stackLayout;horizontal=1;startSize=26;horizontalStack=0;resizeParent=1;resizeParentMax=0;resizeLast=0;collapsible=1;marginBottom=0;whiteSpace=wrap;html=1;" vertex="1" parent="1">
                    <mxGeometry x="40" y="64" width="160" height="86" as="geometry"/>
                </mxCell>
                <mxCell id="3" value="+ field: type" style="text;strokeColor=none;fillColor=none;align=left;verticalAlign=top;spacingLeft=4;spacingRight=4;overflow=hidden;rotatable=0;points=[[0,0.5],[1,0.5]];portConstraint=eastwest;whiteSpace=wrap;html=1;" vertex="1" parent="2">
                    <mxGeometry y="26" width="160" height="26" as="geometry"/>
                </mxCell>
                <mxCell id="4" value="" style="line;strokeWidth=1;fillColor=none;align=left;verticalAlign=middle;spacingTop=-1;spacingLeft=3;spacingRight=3;rotatable=0;labelPosition=right;points=[];portConstraint=eastwest;strokeColor=inherit;" vertex="1" parent="2">
                    <mxGeometry y="52" width="160" height="8" as="geometry"/>
                </mxCell>
                <mxCell id="5" value="+ method(type): type" style="text;strokeColor=none;fillColor=none;align=left;verticalAlign=top;spacingLeft=4;spacingRight=4;overflow=hidden;rotatable=0;points=[[0,0.5],[1,0.5]];portConstraint=eastwest;whiteSpace=wrap;html=1;" vertex="1" parent="2">
                    <mxGeometry y="60" width="160" height="26" as="geometry"/>
                </mxCell>
                <mxCell id="6" value="Expediente" style="swimlane;fontStyle=1;align=center;verticalAlign=top;childLayout=stackLayout;horizontal=1;startSize=26;horizontalStack=0;resizeParent=1;resizeParentMax=0;resizeLast=0;collapsible=1;marginBottom=0;whiteSpace=wrap;html=1;" vertex="1" parent="1">
                    <mxGeometry x="320" y="50" width="180" height="112" as="geometry"/>
                </mxCell>
                <mxCell id="7" value="+ field: type" style="text;strokeColor=none;fillColor=none;align=left;verticalAlign=top;spacingLeft=4;spacingRight=4;overflow=hidden;rotatable=0;points=[[0,0.5],[1,0.5]];portConstraint=eastwest;whiteSpace=wrap;html=1;" vertex="1" parent="6">
                    <mxGeometry y="26" width="180" height="26" as="geometry"/>
                </mxCell>
                <mxCell id="8" value="" style="line;strokeWidth=1;fillColor=none;align=left;verticalAlign=middle;spacingTop=-1;spacingLeft=3;spacingRight=3;rotatable=0;labelPosition=right;points=[];portConstraint=eastwest;strokeColor=inherit;" vertex="1" parent="6">
                    <mxGeometry y="52" width="180" height="8" as="geometry"/>
                </mxCell>
                <mxCell id="9" value="+ CrearExpediente()" style="text;strokeColor=none;fillColor=none;align=left;verticalAlign=top;spacingLeft=4;spacingRight=4;overflow=hidden;rotatable=0;points=[[0,0.5],[1,0.5]];portConstraint=eastwest;whiteSpace=wrap;html=1;" vertex="1" parent="6">
                    <mxGeometry y="60" width="180" height="26" as="geometry"/>
                </mxCell>
                <mxCell id="10" value="+ VisualizarExpediente()" style="text;strokeColor=none;fillColor=none;align=left;verticalAlign=top;spacingLeft=4;spacingRight=4;overflow=hidden;rotatable=0;points=[[0,0.5],[1,0.5]];portConstraint=eastwest;whiteSpace=wrap;html=1;" vertex="1" parent="6">
                    <mxGeometry y="86" width="180" height="26" as="geometry"/>
                </mxCell>
                <mxCell id="11" style="edgeStyle=orthogonalEdgeStyle;rounded=0;orthogonalLoop=1;jettySize=auto;html=1;" edge="1" parent="1" source="12" target="39">
                    <mxGeometry relative="1" as="geometry"/>
                </mxCell>
                <mxCell id="12" value="&lt;font style=&quot;vertical-align: inherit;&quot;&gt;&lt;font style=&quot;vertical-align: inherit;&quot;&gt;Slave_Receta&lt;/font&gt;&lt;/font&gt;" style="swimlane;fontStyle=1;align=center;verticalAlign=top;childLayout=stackLayout;horizontal=1;startSize=26;horizontalStack=0;resizeParent=1;resizeParentMax=0;resizeLast=0;collapsible=1;marginBottom=0;whiteSpace=wrap;html=1;" vertex="1" parent="1">
                    <mxGeometry x="140" y="270" width="160" height="86" as="geometry"/>
                </mxCell>
                <mxCell id="13" value="+ field: type" style="text;strokeColor=none;fillColor=none;align=left;verticalAlign=top;spacingLeft=4;spacingRight=4;overflow=hidden;rotatable=0;points=[[0,0.5],[1,0.5]];portConstraint=eastwest;whiteSpace=wrap;html=1;" vertex="1" parent="12">
                    <mxGeometry y="26" width="160" height="26" as="geometry"/>
                </mxCell>
                <mxCell id="14" value="" style="line;strokeWidth=1;fillColor=none;align=left;verticalAlign=middle;spacingTop=-1;spacingLeft=3;spacingRight=3;rotatable=0;labelPosition=right;points=[];portConstraint=eastwest;strokeColor=inherit;" vertex="1" parent="12">
                    <mxGeometry y="52" width="160" height="8" as="geometry"/>
                </mxCell>
                <mxCell id="15" value="+ method(type): type" style="text;strokeColor=none;fillColor=none;align=left;verticalAlign=top;spacingLeft=4;spacingRight=4;overflow=hidden;rotatable=0;points=[[0,0.5],[1,0.5]];portConstraint=eastwest;whiteSpace=wrap;html=1;" vertex="1" parent="12">
                    <mxGeometry y="60" width="160" height="26" as="geometry"/>
                </mxCell>
                <mxCell id="16" style="edgeStyle=orthogonalEdgeStyle;rounded=0;orthogonalLoop=1;jettySize=auto;html=1;entryX=0.5;entryY=0;entryDx=0;entryDy=0;" edge="1" parent="1" source="17" target="47">
                    <mxGeometry relative="1" as="geometry"/>
                </mxCell>
                <mxCell id="17" value="Slave_Resultado" style="swimlane;fontStyle=1;align=center;verticalAlign=top;childLayout=stackLayout;horizontal=1;startSize=26;horizontalStack=0;resizeParent=1;resizeParentMax=0;resizeLast=0;collapsible=1;marginBottom=0;whiteSpace=wrap;html=1;" vertex="1" parent="1">
                    <mxGeometry x="330" y="270" width="160" height="86" as="geometry"/>
                </mxCell>
                <mxCell id="18" value="+ field: type" style="text;strokeColor=none;fillColor=none;align=left;verticalAlign=top;spacingLeft=4;spacingRight=4;overflow=hidden;rotatable=0;points=[[0,0.5],[1,0.5]];portConstraint=eastwest;whiteSpace=wrap;html=1;" vertex="1" parent="17">
                    <mxGeometry y="26" width="160" height="26" as="geometry"/>
                </mxCell>
                <mxCell id="19" value="" style="line;strokeWidth=1;fillColor=none;align=left;verticalAlign=middle;spacingTop=-1;spacingLeft=3;spacingRight=3;rotatable=0;labelPosition=right;points=[];portConstraint=eastwest;strokeColor=inherit;" vertex="1" parent="17">
                    <mxGeometry y="52" width="160" height="8" as="geometry"/>
                </mxCell>
                <mxCell id="20" value="+ method(type): type" style="text;strokeColor=none;fillColor=none;align=left;verticalAlign=top;spacingLeft=4;spacingRight=4;overflow=hidden;rotatable=0;points=[[0,0.5],[1,0.5]];portConstraint=eastwest;whiteSpace=wrap;html=1;" vertex="1" parent="17">
                    <mxGeometry y="60" width="160" height="26" as="geometry"/>
                </mxCell>
                <mxCell id="21" style="edgeStyle=orthogonalEdgeStyle;rounded=0;orthogonalLoop=1;jettySize=auto;html=1;" edge="1" parent="1" source="22" target="35">
                    <mxGeometry relative="1" as="geometry"/>
                </mxCell>
                <mxCell id="22" value="Slave_Cita" style="swimlane;fontStyle=1;align=center;verticalAlign=top;childLayout=stackLayout;horizontal=1;startSize=26;horizontalStack=0;resizeParent=1;resizeParentMax=0;resizeLast=0;collapsible=1;marginBottom=0;whiteSpace=wrap;html=1;" vertex="1" parent="1">
                    <mxGeometry x="520" y="270" width="160" height="86" as="geometry"/>
                </mxCell>
                <mxCell id="23" value="+ field: type" style="text;strokeColor=none;fillColor=none;align=left;verticalAlign=top;spacingLeft=4;spacingRight=4;overflow=hidden;rotatable=0;points=[[0,0.5],[1,0.5]];portConstraint=eastwest;whiteSpace=wrap;html=1;" vertex="1" parent="22">
                    <mxGeometry y="26" width="160" height="26" as="geometry"/>
                </mxCell>
                <mxCell id="24" value="" style="line;strokeWidth=1;fillColor=none;align=left;verticalAlign=middle;spacingTop=-1;spacingLeft=3;spacingRight=3;rotatable=0;labelPosition=right;points=[];portConstraint=eastwest;strokeColor=inherit;" vertex="1" parent="22">
                    <mxGeometry y="52" width="160" height="8" as="geometry"/>
                </mxCell>
                <mxCell id="25" value="+ method(type): type" style="text;strokeColor=none;fillColor=none;align=left;verticalAlign=top;spacingLeft=4;spacingRight=4;overflow=hidden;rotatable=0;points=[[0,0.5],[1,0.5]];portConstraint=eastwest;whiteSpace=wrap;html=1;" vertex="1" parent="22">
                    <mxGeometry y="60" width="160" height="26" as="geometry"/>
                </mxCell>
                <mxCell id="26" value="dispatch" style="html=1;verticalAlign=bottom;endArrow=block;edgeStyle=elbowEdgeStyle;elbow=vertical;curved=0;rounded=0;" edge="1" parent="1">
                    <mxGeometry width="80" relative="1" as="geometry">
                        <mxPoint x="200" y="107" as="sourcePoint"/>
                        <mxPoint x="320" y="106.5" as="targetPoint"/>
                    </mxGeometry>
                </mxCell>
                <mxCell id="27" value="Slave_DatosPaciente" style="swimlane;fontStyle=1;align=center;verticalAlign=top;childLayout=stackLayout;horizontal=1;startSize=26;horizontalStack=0;resizeParent=1;resizeParentMax=0;resizeLast=0;collapsible=1;marginBottom=0;whiteSpace=wrap;html=1;" vertex="1" parent="1">
                    <mxGeometry x="580" y="90" width="160" height="86" as="geometry"/>
                </mxCell>
                <mxCell id="28" value="+ field: type" style="text;strokeColor=none;fillColor=none;align=left;verticalAlign=top;spacingLeft=4;spacingRight=4;overflow=hidden;rotatable=0;points=[[0,0.5],[1,0.5]];portConstraint=eastwest;whiteSpace=wrap;html=1;" vertex="1" parent="27">
                    <mxGeometry y="26" width="160" height="26" as="geometry"/>
                </mxCell>
                <mxCell id="29" value="" style="line;strokeWidth=1;fillColor=none;align=left;verticalAlign=middle;spacingTop=-1;spacingLeft=3;spacingRight=3;rotatable=0;labelPosition=right;points=[];portConstraint=eastwest;strokeColor=inherit;" vertex="1" parent="27">
                    <mxGeometry y="52" width="160" height="8" as="geometry"/>
                </mxCell>
                <mxCell id="30" value="+ method(type): type" style="text;strokeColor=none;fillColor=none;align=left;verticalAlign=top;spacingLeft=4;spacingRight=4;overflow=hidden;rotatable=0;points=[[0,0.5],[1,0.5]];portConstraint=eastwest;whiteSpace=wrap;html=1;" vertex="1" parent="27">
                    <mxGeometry y="60" width="160" height="26" as="geometry"/>
                </mxCell>
                <mxCell id="31" value="" style="endArrow=classic;html=1;rounded=0;entryX=0.5;entryY=0;entryDx=0;entryDy=0;" edge="1" parent="1" source="10" target="12">
                    <mxGeometry width="50" height="50" relative="1" as="geometry">
                        <mxPoint x="390" y="340" as="sourcePoint"/>
                        <mxPoint x="440" y="290" as="targetPoint"/>
                    </mxGeometry>
                </mxCell>
                <mxCell id="32" value="" style="endArrow=classic;html=1;rounded=0;" edge="1" parent="1" source="10" target="17">
                    <mxGeometry width="50" height="50" relative="1" as="geometry">
                        <mxPoint x="390" y="340" as="sourcePoint"/>
                        <mxPoint x="440" y="290" as="targetPoint"/>
                    </mxGeometry>
                </mxCell>
                <mxCell id="33" value="" style="endArrow=classic;html=1;rounded=0;exitX=0.835;exitY=1.021;exitDx=0;exitDy=0;exitPerimeter=0;" edge="1" parent="1" source="10" target="22">
                    <mxGeometry width="50" height="50" relative="1" as="geometry">
                        <mxPoint x="420" y="146" as="sourcePoint"/>
                        <mxPoint x="420" y="280" as="targetPoint"/>
                    </mxGeometry>
                </mxCell>
                <mxCell id="34" value="" style="endArrow=classic;html=1;rounded=0;entryX=0;entryY=0.5;entryDx=0;entryDy=0;exitX=1;exitY=0.5;exitDx=0;exitDy=0;" edge="1" parent="1" source="9" target="28">
                    <mxGeometry width="50" height="50" relative="1" as="geometry">
                        <mxPoint x="520" y="150" as="sourcePoint"/>
                        <mxPoint x="440" y="290" as="targetPoint"/>
                    </mxGeometry>
                </mxCell>
                <mxCell id="35" value="Cita" style="swimlane;fontStyle=1;align=center;verticalAlign=top;childLayout=stackLayout;horizontal=1;startSize=26;horizontalStack=0;resizeParent=1;resizeParentMax=0;resizeLast=0;collapsible=1;marginBottom=0;whiteSpace=wrap;html=1;" vertex="1" parent="1">
                    <mxGeometry x="520" y="452" width="160" height="86" as="geometry"/>
                </mxCell>
                <mxCell id="36" value="+ field: type" style="text;strokeColor=none;fillColor=none;align=left;verticalAlign=top;spacingLeft=4;spacingRight=4;overflow=hidden;rotatable=0;points=[[0,0.5],[1,0.5]];portConstraint=eastwest;whiteSpace=wrap;html=1;" vertex="1" parent="35">
                    <mxGeometry y="26" width="160" height="26" as="geometry"/>
                </mxCell>
                <mxCell id="37" value="" style="line;strokeWidth=1;fillColor=none;align=left;verticalAlign=middle;spacingTop=-1;spacingLeft=3;spacingRight=3;rotatable=0;labelPosition=right;points=[];portConstraint=eastwest;strokeColor=inherit;" vertex="1" parent="35">
                    <mxGeometry y="52" width="160" height="8" as="geometry"/>
                </mxCell>
                <mxCell id="38" value="+ method(type): type" style="text;strokeColor=none;fillColor=none;align=left;verticalAlign=top;spacingLeft=4;spacingRight=4;overflow=hidden;rotatable=0;points=[[0,0.5],[1,0.5]];portConstraint=eastwest;whiteSpace=wrap;html=1;" vertex="1" parent="35">
                    <mxGeometry y="60" width="160" height="26" as="geometry"/>
                </mxCell>
                <mxCell id="39" value="&lt;font style=&quot;vertical-align: inherit;&quot;&gt;&lt;font style=&quot;vertical-align: inherit;&quot;&gt;Receta&lt;/font&gt;&lt;/font&gt;" style="swimlane;fontStyle=1;align=center;verticalAlign=top;childLayout=stackLayout;horizontal=1;startSize=26;horizontalStack=0;resizeParent=1;resizeParentMax=0;resizeLast=0;collapsible=1;marginBottom=0;whiteSpace=wrap;html=1;" vertex="1" parent="1">
                    <mxGeometry x="140" y="452" width="160" height="86" as="geometry"/>
                </mxCell>
                <mxCell id="40" value="+ field: type" style="text;strokeColor=none;fillColor=none;align=left;verticalAlign=top;spacingLeft=4;spacingRight=4;overflow=hidden;rotatable=0;points=[[0,0.5],[1,0.5]];portConstraint=eastwest;whiteSpace=wrap;html=1;" vertex="1" parent="39">
                    <mxGeometry y="26" width="160" height="26" as="geometry"/>
                </mxCell>
                <mxCell id="41" value="" style="line;strokeWidth=1;fillColor=none;align=left;verticalAlign=middle;spacingTop=-1;spacingLeft=3;spacingRight=3;rotatable=0;labelPosition=right;points=[];portConstraint=eastwest;strokeColor=inherit;" vertex="1" parent="39">
                    <mxGeometry y="52" width="160" height="8" as="geometry"/>
                </mxCell>
                <mxCell id="42" value="+ method(type): type" style="text;strokeColor=none;fillColor=none;align=left;verticalAlign=top;spacingLeft=4;spacingRight=4;overflow=hidden;rotatable=0;points=[[0,0.5],[1,0.5]];portConstraint=eastwest;whiteSpace=wrap;html=1;" vertex="1" parent="39">
                    <mxGeometry y="60" width="160" height="26" as="geometry"/>
                </mxCell>
                <mxCell id="43" value="DatosPaciente" style="swimlane;fontStyle=1;align=center;verticalAlign=top;childLayout=stackLayout;horizontal=1;startSize=26;horizontalStack=0;resizeParent=1;resizeParentMax=0;resizeLast=0;collapsible=1;marginBottom=0;whiteSpace=wrap;html=1;" vertex="1" parent="1">
                    <mxGeometry x="800" y="86" width="160" height="86" as="geometry"/>
                </mxCell>
                <mxCell id="44" value="+ field: type" style="text;strokeColor=none;fillColor=none;align=left;verticalAlign=top;spacingLeft=4;spacingRight=4;overflow=hidden;rotatable=0;points=[[0,0.5],[1,0.5]];portConstraint=eastwest;whiteSpace=wrap;html=1;" vertex="1" parent="43">
                    <mxGeometry y="26" width="160" height="26" as="geometry"/>
                </mxCell>
                <mxCell id="45" value="" style="line;strokeWidth=1;fillColor=none;align=left;verticalAlign=middle;spacingTop=-1;spacingLeft=3;spacingRight=3;rotatable=0;labelPosition=right;points=[];portConstraint=eastwest;strokeColor=inherit;" vertex="1" parent="43">
                    <mxGeometry y="52" width="160" height="8" as="geometry"/>
                </mxCell>
                <mxCell id="46" value="+ method(type): type" style="text;strokeColor=none;fillColor=none;align=left;verticalAlign=top;spacingLeft=4;spacingRight=4;overflow=hidden;rotatable=0;points=[[0,0.5],[1,0.5]];portConstraint=eastwest;whiteSpace=wrap;html=1;" vertex="1" parent="43">
                    <mxGeometry y="60" width="160" height="26" as="geometry"/>
                </mxCell>
                <mxCell id="47" value="Resultado" style="swimlane;fontStyle=1;align=center;verticalAlign=top;childLayout=stackLayout;horizontal=1;startSize=26;horizontalStack=0;resizeParent=1;resizeParentMax=0;resizeLast=0;collapsible=1;marginBottom=0;whiteSpace=wrap;html=1;" vertex="1" parent="1">
                    <mxGeometry x="330" y="452" width="160" height="86" as="geometry"/>
                </mxCell>
                <mxCell id="48" value="+ field: type" style="text;strokeColor=none;fillColor=none;align=left;verticalAlign=top;spacingLeft=4;spacingRight=4;overflow=hidden;rotatable=0;points=[[0,0.5],[1,0.5]];portConstraint=eastwest;whiteSpace=wrap;html=1;" vertex="1" parent="47">
                    <mxGeometry y="26" width="160" height="26" as="geometry"/>
                </mxCell>
                <mxCell id="49" value="" style="line;strokeWidth=1;fillColor=none;align=left;verticalAlign=middle;spacingTop=-1;spacingLeft=3;spacingRight=3;rotatable=0;labelPosition=right;points=[];portConstraint=eastwest;strokeColor=inherit;" vertex="1" parent="47">
                    <mxGeometry y="52" width="160" height="8" as="geometry"/>
                </mxCell>
                <mxCell id="50" value="+ method(type): type" style="text;strokeColor=none;fillColor=none;align=left;verticalAlign=top;spacingLeft=4;spacingRight=4;overflow=hidden;rotatable=0;points=[[0,0.5],[1,0.5]];portConstraint=eastwest;whiteSpace=wrap;html=1;" vertex="1" parent="47">
                    <mxGeometry y="60" width="160" height="26" as="geometry"/>
                </mxCell>
                <mxCell id="51" style="edgeStyle=orthogonalEdgeStyle;rounded=0;orthogonalLoop=1;jettySize=auto;html=1;" edge="1" parent="1" source="28" target="43">
                    <mxGeometry relative="1" as="geometry"/>
                </mxCell>
                <mxCell id="52" value="&lt;font style=&quot;font-size: 18px;&quot;&gt;&lt;b&gt;Master-Slave&amp;nbsp;&lt;br&gt;Clases&lt;br&gt;&lt;/b&gt;&lt;/font&gt;" style="text;html=1;strokeColor=none;fillColor=none;align=center;verticalAlign=middle;whiteSpace=wrap;rounded=0;" vertex="1" parent="1">
                    <mxGeometry x="300" y="-10" width="235" height="30" as="geometry"/>
                </mxCell>
            </root>
        </mxGraphModel>
    </diagram>
    <diagram id="Xvop5IrTZRhoCMuLux2v" name="Secuencia">
        <mxGraphModel dx="2330" dy="1887" grid="1" gridSize="10" guides="1" tooltips="1" connect="1" arrows="1" fold="1" page="1" pageScale="1" pageWidth="850" pageHeight="1100" math="0" shadow="0">
            <root>
                <mxCell id="0"/>
                <mxCell id="1" parent="0"/>
                <mxCell id="PqSREIZcPAn7kQRHQN5g-1" value="Return Receta" style="endArrow=open;endSize=12;dashed=1;html=1;rounded=0;" edge="1" parent="1">
                    <mxGeometry y="-10" width="160" relative="1" as="geometry">
                        <mxPoint x="449.5" y="211" as="sourcePoint"/>
                        <mxPoint x="290" y="211" as="targetPoint"/>
                        <Array as="points">
                            <mxPoint x="450" y="211"/>
                            <mxPoint x="350" y="211"/>
                        </Array>
                        <mxPoint as="offset"/>
                    </mxGeometry>
                </mxCell>
                <mxCell id="PqSREIZcPAn7kQRHQN5g-2" value="" style="endArrow=open;endFill=1;endSize=12;html=1;rounded=0;" edge="1" parent="1" source="PqSREIZcPAn7kQRHQN5g-13" target="PqSREIZcPAn7kQRHQN5g-11">
                    <mxGeometry width="160" relative="1" as="geometry">
                        <mxPoint x="18.939999999999998" y="110" as="sourcePoint"/>
                        <mxPoint x="215" y="110" as="targetPoint"/>
                        <Array as="points">
                            <mxPoint x="30" y="120"/>
                        </Array>
                    </mxGeometry>
                </mxCell>
                <mxCell id="PqSREIZcPAn7kQRHQN5g-3" value="New Expediente();" style="edgeLabel;html=1;align=center;verticalAlign=middle;resizable=0;points=[];" connectable="0" vertex="1" parent="PqSREIZcPAn7kQRHQN5g-2">
                    <mxGeometry x="0.1608" y="3" relative="1" as="geometry">
                        <mxPoint x="-12" y="-7" as="offset"/>
                    </mxGeometry>
                </mxCell>
                <mxCell id="PqSREIZcPAn7kQRHQN5g-4" value="" style="endArrow=open;endFill=1;endSize=12;html=1;rounded=0;" edge="1" parent="1" source="PqSREIZcPAn7kQRHQN5g-13" target="PqSREIZcPAn7kQRHQN5g-11">
                    <mxGeometry width="160" relative="1" as="geometry">
                        <mxPoint x="18.939999999999998" y="150" as="sourcePoint"/>
                        <mxPoint x="215" y="150" as="targetPoint"/>
                        <Array as="points">
                            <mxPoint x="70" y="160"/>
                        </Array>
                    </mxGeometry>
                </mxCell>
                <mxCell id="PqSREIZcPAn7kQRHQN5g-5" value="Crear_Expediente();" style="edgeLabel;html=1;align=center;verticalAlign=middle;resizable=0;points=[];" connectable="0" vertex="1" parent="PqSREIZcPAn7kQRHQN5g-4">
                    <mxGeometry x="0.1608" y="3" relative="1" as="geometry">
                        <mxPoint x="-12" y="-7" as="offset"/>
                    </mxGeometry>
                </mxCell>
                <mxCell id="PqSREIZcPAn7kQRHQN5g-6" value="" style="endArrow=open;endFill=1;endSize=12;html=1;rounded=0;" edge="1" parent="1">
                    <mxGeometry width="160" relative="1" as="geometry">
                        <mxPoint x="295" y="150" as="sourcePoint"/>
                        <mxPoint x="449.5" y="150" as="targetPoint"/>
                        <Array as="points">
                            <mxPoint x="420" y="150"/>
                        </Array>
                    </mxGeometry>
                </mxCell>
                <mxCell id="PqSREIZcPAn7kQRHQN5g-7" value="New Receta();" style="edgeLabel;html=1;align=center;verticalAlign=middle;resizable=0;points=[];" connectable="0" vertex="1" parent="PqSREIZcPAn7kQRHQN5g-6">
                    <mxGeometry x="0.1608" y="3" relative="1" as="geometry">
                        <mxPoint x="-15" y="-7" as="offset"/>
                    </mxGeometry>
                </mxCell>
                <mxCell id="PqSREIZcPAn7kQRHQN5g-8" value="" style="endArrow=open;endFill=1;endSize=12;html=1;rounded=0;" edge="1" parent="1" target="PqSREIZcPAn7kQRHQN5g-10">
                    <mxGeometry width="160" relative="1" as="geometry">
                        <mxPoint x="298" y="176" as="sourcePoint"/>
                        <mxPoint x="447.5" y="176" as="targetPoint"/>
                    </mxGeometry>
                </mxCell>
                <mxCell id="PqSREIZcPAn7kQRHQN5g-9" value="Crear_Receta();" style="edgeLabel;html=1;align=center;verticalAlign=middle;resizable=0;points=[];" connectable="0" vertex="1" parent="PqSREIZcPAn7kQRHQN5g-8">
                    <mxGeometry x="0.1608" y="3" relative="1" as="geometry">
                        <mxPoint x="-12" y="-13" as="offset"/>
                    </mxGeometry>
                </mxCell>
                <mxCell id="PqSREIZcPAn7kQRHQN5g-10" value="Receta" style="shape=umlLifeline;perimeter=lifelinePerimeter;whiteSpace=wrap;html=1;container=1;dropTarget=0;collapsible=0;recursiveResize=0;outlineConnect=0;portConstraint=eastwest;newEdgeStyle={&quot;edgeStyle&quot;:&quot;elbowEdgeStyle&quot;,&quot;elbow&quot;:&quot;vertical&quot;,&quot;curved&quot;:0,&quot;rounded&quot;:0};" vertex="1" parent="1">
                    <mxGeometry x="400" y="40" width="100" height="920" as="geometry"/>
                </mxCell>
                <mxCell id="PqSREIZcPAn7kQRHQN5g-11" value="Expediente" style="shape=umlLifeline;perimeter=lifelinePerimeter;whiteSpace=wrap;html=1;container=1;dropTarget=0;collapsible=0;recursiveResize=0;outlineConnect=0;portConstraint=eastwest;newEdgeStyle={&quot;edgeStyle&quot;:&quot;elbowEdgeStyle&quot;,&quot;elbow&quot;:&quot;vertical&quot;,&quot;curved&quot;:0,&quot;rounded&quot;:0};" vertex="1" parent="1">
                    <mxGeometry x="60" y="40" width="100" height="920" as="geometry"/>
                </mxCell>
                <mxCell id="PqSREIZcPAn7kQRHQN5g-12" value="" style="html=1;points=[];perimeter=orthogonalPerimeter;outlineConnect=0;targetShapes=umlLifeline;portConstraint=eastwest;newEdgeStyle={&quot;edgeStyle&quot;:&quot;elbowEdgeStyle&quot;,&quot;elbow&quot;:&quot;vertical&quot;,&quot;curved&quot;:0,&quot;rounded&quot;:0};" vertex="1" parent="PqSREIZcPAn7kQRHQN5g-11">
                    <mxGeometry x="45" y="40" width="10" height="880" as="geometry"/>
                </mxCell>
                <mxCell id="PqSREIZcPAn7kQRHQN5g-13" value="Gestor_Expediente" style="shape=umlLifeline;perimeter=lifelinePerimeter;whiteSpace=wrap;html=1;container=1;dropTarget=0;collapsible=0;recursiveResize=0;outlineConnect=0;portConstraint=eastwest;newEdgeStyle={&quot;edgeStyle&quot;:&quot;elbowEdgeStyle&quot;,&quot;elbow&quot;:&quot;vertical&quot;,&quot;curved&quot;:0,&quot;rounded&quot;:0};" vertex="1" parent="1">
                    <mxGeometry x="-130" y="40" width="110" height="920" as="geometry"/>
                </mxCell>
                <mxCell id="PqSREIZcPAn7kQRHQN5g-14" value="Resultado" style="shape=umlLifeline;perimeter=lifelinePerimeter;whiteSpace=wrap;html=1;container=1;dropTarget=0;collapsible=0;recursiveResize=0;outlineConnect=0;portConstraint=eastwest;newEdgeStyle={&quot;edgeStyle&quot;:&quot;elbowEdgeStyle&quot;,&quot;elbow&quot;:&quot;vertical&quot;,&quot;curved&quot;:0,&quot;rounded&quot;:0};" vertex="1" parent="1">
                    <mxGeometry x="720" y="40" width="100" height="920" as="geometry"/>
                </mxCell>
                <mxCell id="PqSREIZcPAn7kQRHQN5g-15" value="" style="endArrow=open;endFill=1;endSize=12;html=1;rounded=0;" edge="1" parent="PqSREIZcPAn7kQRHQN5g-14" source="PqSREIZcPAn7kQRHQN5g-33">
                    <mxGeometry width="160" relative="1" as="geometry">
                        <mxPoint x="-151.05999999999995" y="288" as="sourcePoint"/>
                        <mxPoint x="49.5" y="288" as="targetPoint"/>
                    </mxGeometry>
                </mxCell>
                <mxCell id="PqSREIZcPAn7kQRHQN5g-16" value="New Resultado();" style="edgeLabel;html=1;align=center;verticalAlign=middle;resizable=0;points=[];" connectable="0" vertex="1" parent="PqSREIZcPAn7kQRHQN5g-15">
                    <mxGeometry x="0.1608" y="3" relative="1" as="geometry">
                        <mxPoint x="-12" y="-5" as="offset"/>
                    </mxGeometry>
                </mxCell>
                <mxCell id="PqSREIZcPAn7kQRHQN5g-17" value="Cita" style="shape=umlLifeline;perimeter=lifelinePerimeter;whiteSpace=wrap;html=1;container=1;dropTarget=0;collapsible=0;recursiveResize=0;outlineConnect=0;portConstraint=eastwest;newEdgeStyle={&quot;edgeStyle&quot;:&quot;elbowEdgeStyle&quot;,&quot;elbow&quot;:&quot;vertical&quot;,&quot;curved&quot;:0,&quot;rounded&quot;:0};" vertex="1" parent="1">
                    <mxGeometry x="1100" y="40" width="100" height="920" as="geometry"/>
                </mxCell>
                <mxCell id="PqSREIZcPAn7kQRHQN5g-18" value="" style="endArrow=open;endFill=1;endSize=12;html=1;rounded=0;" edge="1" parent="PqSREIZcPAn7kQRHQN5g-17">
                    <mxGeometry width="160" relative="1" as="geometry">
                        <mxPoint x="-150.6111111111113" y="513" as="sourcePoint"/>
                        <mxPoint x="49.5" y="513" as="targetPoint"/>
                    </mxGeometry>
                </mxCell>
                <mxCell id="PqSREIZcPAn7kQRHQN5g-19" value="New&amp;nbsp;Cita();" style="edgeLabel;html=1;align=center;verticalAlign=middle;resizable=0;points=[];" connectable="0" vertex="1" parent="PqSREIZcPAn7kQRHQN5g-18">
                    <mxGeometry x="0.1608" y="3" relative="1" as="geometry">
                        <mxPoint x="-12" as="offset"/>
                    </mxGeometry>
                </mxCell>
                <mxCell id="PqSREIZcPAn7kQRHQN5g-20" value="" style="endArrow=open;endFill=1;endSize=12;html=1;rounded=0;" edge="1" parent="PqSREIZcPAn7kQRHQN5g-17">
                    <mxGeometry width="160" relative="1" as="geometry">
                        <mxPoint x="-150.6111111111113" y="543" as="sourcePoint"/>
                        <mxPoint x="49.5" y="543" as="targetPoint"/>
                    </mxGeometry>
                </mxCell>
                <mxCell id="PqSREIZcPAn7kQRHQN5g-21" value="Crear_Cita();" style="edgeLabel;html=1;align=center;verticalAlign=middle;resizable=0;points=[];" connectable="0" vertex="1" parent="PqSREIZcPAn7kQRHQN5g-20">
                    <mxGeometry x="0.1608" y="3" relative="1" as="geometry">
                        <mxPoint x="-12" as="offset"/>
                    </mxGeometry>
                </mxCell>
                <mxCell id="PqSREIZcPAn7kQRHQN5g-22" value="Datos_Paciente" style="shape=umlLifeline;perimeter=lifelinePerimeter;whiteSpace=wrap;html=1;container=1;dropTarget=0;collapsible=0;recursiveResize=0;outlineConnect=0;portConstraint=eastwest;newEdgeStyle={&quot;edgeStyle&quot;:&quot;elbowEdgeStyle&quot;,&quot;elbow&quot;:&quot;vertical&quot;,&quot;curved&quot;:0,&quot;rounded&quot;:0};" vertex="1" parent="1">
                    <mxGeometry x="1510" y="40" width="100" height="920" as="geometry"/>
                </mxCell>
                <mxCell id="PqSREIZcPAn7kQRHQN5g-23" value="" style="endArrow=open;endFill=1;endSize=12;html=1;rounded=0;" edge="1" parent="PqSREIZcPAn7kQRHQN5g-22">
                    <mxGeometry width="160" relative="1" as="geometry">
                        <mxPoint x="-170.67647058823513" y="763" as="sourcePoint"/>
                        <mxPoint x="49.5" y="763" as="targetPoint"/>
                    </mxGeometry>
                </mxCell>
                <mxCell id="PqSREIZcPAn7kQRHQN5g-24" value="New Datos_Paciente();" style="edgeLabel;html=1;align=center;verticalAlign=middle;resizable=0;points=[];" connectable="0" vertex="1" parent="PqSREIZcPAn7kQRHQN5g-23">
                    <mxGeometry x="0.1608" y="3" relative="1" as="geometry">
                        <mxPoint x="-12" as="offset"/>
                    </mxGeometry>
                </mxCell>
                <mxCell id="PqSREIZcPAn7kQRHQN5g-25" value="" style="endArrow=open;endFill=1;endSize=12;html=1;rounded=0;" edge="1" parent="PqSREIZcPAn7kQRHQN5g-22">
                    <mxGeometry width="160" relative="1" as="geometry">
                        <mxPoint x="-170.67647058823513" y="793" as="sourcePoint"/>
                        <mxPoint x="49.5" y="793" as="targetPoint"/>
                    </mxGeometry>
                </mxCell>
                <mxCell id="PqSREIZcPAn7kQRHQN5g-26" value="Crear_Datos_Paciente();" style="edgeLabel;html=1;align=center;verticalAlign=middle;resizable=0;points=[];" connectable="0" vertex="1" parent="PqSREIZcPAn7kQRHQN5g-25">
                    <mxGeometry x="0.1608" y="3" relative="1" as="geometry">
                        <mxPoint x="-12" as="offset"/>
                    </mxGeometry>
                </mxCell>
                <mxCell id="PqSREIZcPAn7kQRHQN5g-27" value="Return&amp;nbsp;Cita" style="endArrow=open;endSize=12;dashed=1;html=1;rounded=0;" edge="1" parent="1" source="PqSREIZcPAn7kQRHQN5g-17" target="PqSREIZcPAn7kQRHQN5g-36">
                    <mxGeometry width="160" relative="1" as="geometry">
                        <mxPoint x="831.06" y="642.5" as="sourcePoint"/>
                        <mxPoint x="949.3888888888887" y="660" as="targetPoint"/>
                        <Array as="points">
                            <mxPoint x="1000" y="610"/>
                        </Array>
                    </mxGeometry>
                </mxCell>
                <mxCell id="PqSREIZcPAn7kQRHQN5g-28" value="Return Resultado" style="endArrow=open;endSize=12;dashed=1;html=1;rounded=0;" edge="1" parent="1" source="PqSREIZcPAn7kQRHQN5g-14" target="PqSREIZcPAn7kQRHQN5g-35">
                    <mxGeometry x="0.0635" y="-10" width="160" relative="1" as="geometry">
                        <mxPoint x="750" y="420" as="sourcePoint"/>
                        <mxPoint x="426.06" y="417.5" as="targetPoint"/>
                        <Array as="points">
                            <mxPoint x="740" y="400"/>
                            <mxPoint x="650" y="400"/>
                        </Array>
                        <mxPoint as="offset"/>
                    </mxGeometry>
                </mxCell>
                <mxCell id="PqSREIZcPAn7kQRHQN5g-29" value="Return&amp;nbsp;Cita" style="endArrow=open;endSize=12;dashed=1;html=1;rounded=0;" edge="1" parent="1" source="PqSREIZcPAn7kQRHQN5g-22">
                    <mxGeometry width="160" relative="1" as="geometry">
                        <mxPoint x="1530.68" y="860" as="sourcePoint"/>
                        <mxPoint x="1350.003529411765" y="860" as="targetPoint"/>
                    </mxGeometry>
                </mxCell>
                <mxCell id="PqSREIZcPAn7kQRHQN5g-30" value="Slave_Receta" style="shape=umlLifeline;perimeter=lifelinePerimeter;whiteSpace=wrap;html=1;container=1;dropTarget=0;collapsible=0;recursiveResize=0;outlineConnect=0;portConstraint=eastwest;newEdgeStyle={&quot;edgeStyle&quot;:&quot;elbowEdgeStyle&quot;,&quot;elbow&quot;:&quot;vertical&quot;,&quot;curved&quot;:0,&quot;rounded&quot;:0};" vertex="1" parent="1">
                    <mxGeometry x="240" y="40" width="100" height="920" as="geometry"/>
                </mxCell>
                <mxCell id="PqSREIZcPAn7kQRHQN5g-31" value="" style="html=1;points=[];perimeter=orthogonalPerimeter;outlineConnect=0;targetShapes=umlLifeline;portConstraint=eastwest;newEdgeStyle={&quot;edgeStyle&quot;:&quot;elbowEdgeStyle&quot;,&quot;elbow&quot;:&quot;vertical&quot;,&quot;curved&quot;:0,&quot;rounded&quot;:0};" vertex="1" parent="PqSREIZcPAn7kQRHQN5g-30">
                    <mxGeometry x="45" y="90" width="10" height="160" as="geometry"/>
                </mxCell>
                <mxCell id="PqSREIZcPAn7kQRHQN5g-32" value="Procesamiento Receta()" style="html=1;align=left;spacingLeft=2;endArrow=block;rounded=0;edgeStyle=orthogonalEdgeStyle;curved=0;rounded=0;" edge="1" parent="PqSREIZcPAn7kQRHQN5g-30">
                    <mxGeometry x="-0.0833" y="10" relative="1" as="geometry">
                        <mxPoint x="55" y="191" as="sourcePoint"/>
                        <Array as="points">
                            <mxPoint x="100" y="191"/>
                            <mxPoint x="100" y="221"/>
                        </Array>
                        <mxPoint x="55" y="221" as="targetPoint"/>
                        <mxPoint as="offset"/>
                    </mxGeometry>
                </mxCell>
                <mxCell id="PqSREIZcPAn7kQRHQN5g-33" value="Slave_Resultado" style="shape=umlLifeline;perimeter=lifelinePerimeter;whiteSpace=wrap;html=1;container=1;dropTarget=0;collapsible=0;recursiveResize=0;outlineConnect=0;portConstraint=eastwest;newEdgeStyle={&quot;edgeStyle&quot;:&quot;elbowEdgeStyle&quot;,&quot;elbow&quot;:&quot;vertical&quot;,&quot;curved&quot;:0,&quot;rounded&quot;:0};" vertex="1" parent="1">
                    <mxGeometry x="560" y="40" width="100" height="920" as="geometry"/>
                </mxCell>
                <mxCell id="PqSREIZcPAn7kQRHQN5g-34" value="ProcesamientoResultado();" style="html=1;align=left;spacingLeft=2;endArrow=block;rounded=0;edgeStyle=orthogonalEdgeStyle;curved=0;rounded=0;" edge="1" parent="PqSREIZcPAn7kQRHQN5g-33" target="PqSREIZcPAn7kQRHQN5g-35">
                    <mxGeometry x="0.2857" relative="1" as="geometry">
                        <mxPoint x="60" y="358" as="sourcePoint"/>
                        <Array as="points">
                            <mxPoint x="60" y="390"/>
                            <mxPoint x="90" y="390"/>
                            <mxPoint x="90" y="410"/>
                        </Array>
                        <mxPoint as="offset"/>
                    </mxGeometry>
                </mxCell>
                <mxCell id="PqSREIZcPAn7kQRHQN5g-35" value="" style="html=1;points=[];perimeter=orthogonalPerimeter;outlineConnect=0;targetShapes=umlLifeline;portConstraint=eastwest;newEdgeStyle={&quot;edgeStyle&quot;:&quot;elbowEdgeStyle&quot;,&quot;elbow&quot;:&quot;vertical&quot;,&quot;curved&quot;:0,&quot;rounded&quot;:0};" vertex="1" parent="PqSREIZcPAn7kQRHQN5g-33">
                    <mxGeometry x="50" y="280" width="10" height="178" as="geometry"/>
                </mxCell>
                <mxCell id="PqSREIZcPAn7kQRHQN5g-36" value="Slave_Cita" style="shape=umlLifeline;perimeter=lifelinePerimeter;whiteSpace=wrap;html=1;container=1;dropTarget=0;collapsible=0;recursiveResize=0;outlineConnect=0;portConstraint=eastwest;newEdgeStyle={&quot;edgeStyle&quot;:&quot;elbowEdgeStyle&quot;,&quot;elbow&quot;:&quot;vertical&quot;,&quot;curved&quot;:0,&quot;rounded&quot;:0};" vertex="1" parent="1">
                    <mxGeometry x="900" y="40" width="100" height="920" as="geometry"/>
                </mxCell>
                <mxCell id="PqSREIZcPAn7kQRHQN5g-37" value="Procesamiento&amp;nbsp;Cita()" style="html=1;align=left;spacingLeft=2;endArrow=block;rounded=0;edgeStyle=orthogonalEdgeStyle;curved=0;rounded=0;" edge="1" parent="PqSREIZcPAn7kQRHQN5g-36" target="PqSREIZcPAn7kQRHQN5g-38">
                    <mxGeometry relative="1" as="geometry">
                        <mxPoint x="60" y="593" as="sourcePoint"/>
                        <Array as="points">
                            <mxPoint x="90" y="593"/>
                            <mxPoint x="90" y="623"/>
                        </Array>
                    </mxGeometry>
                </mxCell>
                <mxCell id="PqSREIZcPAn7kQRHQN5g-38" value="" style="html=1;points=[];perimeter=orthogonalPerimeter;outlineConnect=0;targetShapes=umlLifeline;portConstraint=eastwest;newEdgeStyle={&quot;edgeStyle&quot;:&quot;elbowEdgeStyle&quot;,&quot;elbow&quot;:&quot;vertical&quot;,&quot;curved&quot;:0,&quot;rounded&quot;:0};" vertex="1" parent="PqSREIZcPAn7kQRHQN5g-36">
                    <mxGeometry x="50" y="510" width="10" height="183" as="geometry"/>
                </mxCell>
                <mxCell id="PqSREIZcPAn7kQRHQN5g-39" value="Slave_Datos_&lt;br&gt;Paciente" style="shape=umlLifeline;perimeter=lifelinePerimeter;whiteSpace=wrap;html=1;container=1;dropTarget=0;collapsible=0;recursiveResize=0;outlineConnect=0;portConstraint=eastwest;newEdgeStyle={&quot;edgeStyle&quot;:&quot;elbowEdgeStyle&quot;,&quot;elbow&quot;:&quot;vertical&quot;,&quot;curved&quot;:0,&quot;rounded&quot;:0};" vertex="1" parent="1">
                    <mxGeometry x="1290" y="40" width="100" height="920" as="geometry"/>
                </mxCell>
                <mxCell id="PqSREIZcPAn7kQRHQN5g-40" value="Procesamiento Datos_Paciente()" style="html=1;align=left;spacingLeft=2;endArrow=block;rounded=0;edgeStyle=orthogonalEdgeStyle;curved=0;rounded=0;" edge="1" parent="PqSREIZcPAn7kQRHQN5g-39">
                    <mxGeometry relative="1" as="geometry">
                        <mxPoint x="60" y="837" as="sourcePoint"/>
                        <Array as="points">
                            <mxPoint x="60" y="844"/>
                            <mxPoint x="90" y="844"/>
                            <mxPoint x="90" y="867"/>
                        </Array>
                        <mxPoint x="60" y="867" as="targetPoint"/>
                    </mxGeometry>
                </mxCell>
                <mxCell id="PqSREIZcPAn7kQRHQN5g-41" value="" style="html=1;points=[];perimeter=orthogonalPerimeter;outlineConnect=0;targetShapes=umlLifeline;portConstraint=eastwest;newEdgeStyle={&quot;edgeStyle&quot;:&quot;elbowEdgeStyle&quot;,&quot;elbow&quot;:&quot;vertical&quot;,&quot;curved&quot;:0,&quot;rounded&quot;:0};" vertex="1" parent="PqSREIZcPAn7kQRHQN5g-39">
                    <mxGeometry x="50" y="760" width="10" height="150" as="geometry"/>
                </mxCell>
                <mxCell id="PqSREIZcPAn7kQRHQN5g-42" value="Return Receta" style="endArrow=open;endSize=12;dashed=1;html=1;rounded=0;" edge="1" parent="1">
                    <mxGeometry y="-10" width="160" relative="1" as="geometry">
                        <mxPoint x="280" y="287" as="sourcePoint"/>
                        <mxPoint x="120" y="287" as="targetPoint"/>
                        <Array as="points">
                            <mxPoint x="281" y="287"/>
                            <mxPoint x="181" y="287"/>
                        </Array>
                        <mxPoint as="offset"/>
                    </mxGeometry>
                </mxCell>
                <mxCell id="PqSREIZcPAn7kQRHQN5g-43" value="" style="endArrow=open;endFill=1;endSize=12;html=1;rounded=0;" edge="1" parent="1">
                    <mxGeometry width="160" relative="1" as="geometry">
                        <mxPoint x="120" y="130" as="sourcePoint"/>
                        <mxPoint x="280" y="130" as="targetPoint"/>
                    </mxGeometry>
                </mxCell>
                <mxCell id="PqSREIZcPAn7kQRHQN5g-44" value="Crear_Receta();" style="edgeLabel;html=1;align=center;verticalAlign=middle;resizable=0;points=[];" connectable="0" vertex="1" parent="PqSREIZcPAn7kQRHQN5g-43">
                    <mxGeometry x="0.1608" y="3" relative="1" as="geometry">
                        <mxPoint x="-12" y="-7" as="offset"/>
                    </mxGeometry>
                </mxCell>
                <mxCell id="PqSREIZcPAn7kQRHQN5g-45" value="" style="endArrow=open;endFill=1;endSize=12;html=1;rounded=0;" edge="1" parent="1" target="PqSREIZcPAn7kQRHQN5g-33">
                    <mxGeometry width="160" relative="1" as="geometry">
                        <mxPoint x="120" y="320" as="sourcePoint"/>
                        <mxPoint x="279" y="320" as="targetPoint"/>
                    </mxGeometry>
                </mxCell>
                <mxCell id="PqSREIZcPAn7kQRHQN5g-46" value="Crear_Resultado();" style="edgeLabel;html=1;align=center;verticalAlign=middle;resizable=0;points=[];" connectable="0" vertex="1" parent="PqSREIZcPAn7kQRHQN5g-45">
                    <mxGeometry x="0.1608" y="3" relative="1" as="geometry">
                        <mxPoint x="-4" y="-7" as="offset"/>
                    </mxGeometry>
                </mxCell>
                <mxCell id="PqSREIZcPAn7kQRHQN5g-47" value="Return Resultado" style="endArrow=open;endSize=12;dashed=1;html=1;rounded=0;" edge="1" parent="1" source="PqSREIZcPAn7kQRHQN5g-35" target="PqSREIZcPAn7kQRHQN5g-12">
                    <mxGeometry width="160" relative="1" as="geometry">
                        <mxPoint x="600" y="480" as="sourcePoint"/>
                        <mxPoint x="450" y="480" as="targetPoint"/>
                        <Array as="points">
                            <mxPoint x="490" y="480"/>
                        </Array>
                    </mxGeometry>
                </mxCell>
                <mxCell id="PqSREIZcPAn7kQRHQN5g-48" value="" style="endArrow=open;endFill=1;endSize=12;html=1;rounded=0;" edge="1" parent="1" source="PqSREIZcPAn7kQRHQN5g-11">
                    <mxGeometry width="160" relative="1" as="geometry">
                        <mxPoint x="350" y="520" as="sourcePoint"/>
                        <mxPoint x="950.5" y="520" as="targetPoint"/>
                    </mxGeometry>
                </mxCell>
                <mxCell id="PqSREIZcPAn7kQRHQN5g-49" value="Crear_Cita();" style="edgeLabel;html=1;align=center;verticalAlign=middle;resizable=0;points=[];" connectable="0" vertex="1" parent="PqSREIZcPAn7kQRHQN5g-48">
                    <mxGeometry x="0.1608" y="3" relative="1" as="geometry">
                        <mxPoint x="-47" y="-7" as="offset"/>
                    </mxGeometry>
                </mxCell>
                <mxCell id="PqSREIZcPAn7kQRHQN5g-50" value="Return&amp;nbsp;Cita" style="endArrow=open;endSize=12;dashed=1;html=1;rounded=0;" edge="1" parent="1" target="PqSREIZcPAn7kQRHQN5g-11">
                    <mxGeometry width="160" relative="1" as="geometry">
                        <mxPoint x="951" y="690" as="sourcePoint"/>
                        <mxPoint x="750" y="690" as="targetPoint"/>
                        <Array as="points">
                            <mxPoint x="801" y="690"/>
                        </Array>
                    </mxGeometry>
                </mxCell>
                <mxCell id="PqSREIZcPAn7kQRHQN5g-51" value="" style="endArrow=open;endFill=1;endSize=12;html=1;rounded=0;" edge="1" parent="1" source="PqSREIZcPAn7kQRHQN5g-11">
                    <mxGeometry width="160" relative="1" as="geometry">
                        <mxPoint x="1120.003529411765" y="770" as="sourcePoint"/>
                        <mxPoint x="1340.18" y="770" as="targetPoint"/>
                    </mxGeometry>
                </mxCell>
                <mxCell id="PqSREIZcPAn7kQRHQN5g-52" value="Crear_Datos_Paciente();" style="edgeLabel;html=1;align=center;verticalAlign=middle;resizable=0;points=[];" connectable="0" vertex="1" parent="PqSREIZcPAn7kQRHQN5g-51">
                    <mxGeometry x="0.1608" y="3" relative="1" as="geometry">
                        <mxPoint x="-13" y="-7" as="offset"/>
                    </mxGeometry>
                </mxCell>
                <mxCell id="PqSREIZcPAn7kQRHQN5g-53" value="Return&amp;nbsp;Cita" style="endArrow=open;endSize=12;dashed=1;html=1;rounded=0;" edge="1" parent="1" target="PqSREIZcPAn7kQRHQN5g-11">
                    <mxGeometry width="160" relative="1" as="geometry">
                        <mxPoint x="1340" y="930" as="sourcePoint"/>
                        <mxPoint x="230" y="940" as="targetPoint"/>
                    </mxGeometry>
                </mxCell>
                <mxCell id="PqSREIZcPAn7kQRHQN5g-54" value="Return Expediente" style="endArrow=open;endSize=12;dashed=1;html=1;rounded=0;" edge="1" parent="1" source="PqSREIZcPAn7kQRHQN5g-12">
                    <mxGeometry width="160" relative="1" as="geometry">
                        <mxPoint x="101" y="950" as="sourcePoint"/>
                        <mxPoint x="-80" y="950" as="targetPoint"/>
                        <Array as="points">
                            <mxPoint x="-39" y="950"/>
                        </Array>
                    </mxGeometry>
                </mxCell>
                <mxCell id="PqSREIZcPAn7kQRHQN5g-55" value="" style="endArrow=open;endFill=1;endSize=12;html=1;rounded=0;" edge="1" parent="1">
                    <mxGeometry width="160" relative="1" as="geometry">
                        <mxPoint x="620" y="360" as="sourcePoint"/>
                        <mxPoint x="770" y="360" as="targetPoint"/>
                    </mxGeometry>
                </mxCell>
                <mxCell id="PqSREIZcPAn7kQRHQN5g-56" value="Crear_Resultado();" style="edgeLabel;html=1;align=center;verticalAlign=middle;resizable=0;points=[];" connectable="0" vertex="1" parent="PqSREIZcPAn7kQRHQN5g-55">
                    <mxGeometry x="0.1608" y="3" relative="1" as="geometry">
                        <mxPoint x="-12" y="-7" as="offset"/>
                    </mxGeometry>
                </mxCell>
                <mxCell id="PqSREIZcPAn7kQRHQN5g-57" value="&lt;font style=&quot;font-size: 18px;&quot;&gt;&lt;b&gt;Master-Slave&amp;nbsp;&lt;br&gt;Secuencia&lt;br&gt;&lt;/b&gt;&lt;/font&gt;" style="text;html=1;strokeColor=none;fillColor=none;align=center;verticalAlign=middle;whiteSpace=wrap;rounded=0;" vertex="1" parent="1">
                    <mxGeometry x="360" y="-20" width="235" height="30" as="geometry"/>
                </mxCell>
            </root>
        </mxGraphModel>
    </diagram>
</mxfile>